<?xml version="1.0" encoding="UTF-8" standalone="no"?>
<svg
   xmlns:dc="http://purl.org/dc/elements/1.1/"
   xmlns:cc="http://creativecommons.org/ns#"
   xmlns:rdf="http://www.w3.org/1999/02/22-rdf-syntax-ns#"
   xmlns:svg="http://www.w3.org/2000/svg"
   xmlns="http://www.w3.org/2000/svg"
   id="svg1040"
   version="1.1"
   viewBox="0 0 406.4 86.783328"
   height="328"
   width="1536">
  <defs
     id="defs1034" />
  <metadata
     id="metadata1037">
    <rdf:RDF>
      <cc:Work
         rdf:about="">
        <dc:format>image/svg+xml</dc:format>
        <dc:type
           rdf:resource="http://purl.org/dc/dcmitype/StillImage" />
        <dc:title></dc:title>
      </cc:Work>
    </rdf:RDF>
  </metadata>
  <g
     transform="translate(-17.18272,-248.57331)"
     id="layer1">
    <rect
       y="248.5733"
       x="17.18272"
       height="86.783333"
       width="406.39999"
       id="rect48"
       style="opacity:1;fill:#333333;fill-opacity:1;stroke:none;stroke-width:1.05833328;stroke-linecap:round;stroke-linejoin:round;stroke-miterlimit:4;stroke-dasharray:none;stroke-dashoffset:0;stroke-opacity:1;paint-order:normal" />
    <g
       id="text56"
       style="font-style:normal;font-variant:normal;font-weight:normal;font-stretch:normal;font-size:26.91481018px;line-height:1.25;font-family:Ebrima;-inkscape-font-specification:Ebrima;letter-spacing:0px;word-spacing:0px;fill:#ffffff;fill-opacity:1;stroke:none;stroke-width:0.26458329"
       aria-label="Editor">
      <path
         id="path88"
         style="font-style:normal;font-variant:normal;font-weight:normal;font-stretch:normal;font-family:Ebrima;-inkscape-font-specification:Ebrima;fill:#ffffff;fill-opacity:1;stroke-width:0.26458329"
         d="m 167.29408,301.76889 h -9.98792 v -18.84562 h 9.56737 v 1.99758 h -7.35951 v 6.26873 h 6.80755 v 1.98444 h -6.80755 v 6.59729 h 7.78006 z" />
      <path
         id="path90"
         style="font-style:normal;font-variant:normal;font-weight:normal;font-stretch:normal;font-family:Ebrima;-inkscape-font-specification:Ebrima;fill:#ffffff;fill-opacity:1;stroke-width:0.26458329"
         d="m 182.11825,301.76889 h -2.15529 v -2.28671 h -0.0526 q -1.49819,2.60212 -4.62599,2.60212 -2.5364,0 -4.06087,-1.80046 -1.51133,-1.81359 -1.51133,-4.92824 0,-3.33807 1.68217,-5.3488 1.68218,-2.01072 4.48142,-2.01072 2.77296,0 4.0346,2.18157 h 0.0526 v -8.33203 h 2.15529 z m -2.15529,-6.08474 v -1.98445 q 0,-1.6296 -1.07764,-2.75982 -1.07764,-1.13021 -2.73354,-1.13021 -1.9713,0 -3.10151,1.44562 -1.13021,1.44562 -1.13021,3.99517 0,2.32613 1.07764,3.67976 1.09079,1.34048 2.91753,1.34048 1.80045,0 2.91752,-1.30106 1.13021,-1.30105 1.13021,-3.28549 z" />
      <path
         id="path92"
         style="font-style:normal;font-variant:normal;font-weight:normal;font-stretch:normal;font-family:Ebrima;-inkscape-font-specification:Ebrima;fill:#ffffff;fill-opacity:1;stroke-width:0.26458329"
         d="m 187.61161,284.89457 q -0.57825,0 -0.98565,-0.39426 -0.40741,-0.39426 -0.40741,-0.9988 0,-0.60453 0.40741,-0.99879 0.4074,-0.4074 0.98565,-0.4074 0.59139,0 0.99879,0.4074 0.42054,0.39426 0.42054,0.99879 0,0.57825 -0.42054,0.98565 -0.4074,0.40741 -0.99879,0.40741 z m 1.05136,16.87432 h -2.15529 v -13.4574 h 2.15529 z" />
      <path
         id="path94"
         style="font-style:normal;font-variant:normal;font-weight:normal;font-stretch:normal;font-family:Ebrima;-inkscape-font-specification:Ebrima;fill:#ffffff;fill-opacity:1;stroke-width:0.26458329"
         d="m 199.26856,301.63747 q -0.76224,0.42054 -2.01073,0.42054 -3.5352,0 -3.5352,-3.94259 v -7.96406 h -2.31299 v -1.83987 h 2.31299 v -3.2855 l 2.15529,-0.69653 v 3.98203 h 3.39064 v 1.83987 h -3.39064 v 7.58294 q 0,1.35362 0.45997,1.93187 0.45997,0.57825 1.52447,0.57825 0.81481,0 1.4062,-0.44683 z" />
      <path
         id="path96"
         style="font-style:normal;font-variant:normal;font-weight:normal;font-stretch:normal;font-family:Ebrima;-inkscape-font-specification:Ebrima;fill:#ffffff;fill-opacity:1;stroke-width:0.26458329"
         d="m 207.79771,302.0843 q -2.98323,0 -4.77054,-1.87931 -1.77417,-1.89244 -1.77417,-5.0071 0,-3.39063 1.85302,-5.29622 1.85302,-1.90559 5.0071,-1.90559 3.00952,0 4.69169,1.85302 1.69532,1.85302 1.69532,5.13852 0,3.21979 -1.82674,5.1648 -1.81359,1.93188 -4.87568,1.93188 z m 0.15771,-12.27463 q -2.07644,0 -3.2855,1.41934 -1.20907,1.40619 -1.20907,3.89003 0,2.39184 1.22221,3.77175 1.22221,1.37991 3.27236,1.37991 2.08958,0 3.20664,-1.35362 1.13022,-1.35363 1.13022,-3.85061 0,-2.52326 -1.13022,-3.89003 -1.11706,-1.36677 -3.20664,-1.36677 z" />
      <path
         id="path98"
         style="font-style:normal;font-variant:normal;font-weight:normal;font-stretch:normal;font-family:Ebrima;-inkscape-font-specification:Ebrima;fill:#ffffff;fill-opacity:1;stroke-width:0.26458329"
         d="m 224.96116,290.49306 q -0.5651,-0.43369 -1.62961,-0.43369 -1.3799,0 -2.31299,1.30106 -0.91994,1.30106 -0.91994,3.54834 v 6.86012 h -2.15528 v -13.4574 h 2.15528 v 2.77296 h 0.0526 q 0.45997,-1.41934 1.4062,-2.20786 0.94622,-0.80166 2.11586,-0.80166 0.84108,0 1.28791,0.18399 z" />
    </g>
    <g
       id="g84"
       transform="matrix(0.1019432,0,0,0.1019432,37.851014,266.47923)"
       style="stroke-width:2.59539962">
      <g
         id="g76"
         style="stroke-width:2.59539962">
        <g
           id="g62"
           style="stroke-width:2.59539962">
          <path
             id="path58"
             d="m 419.671,403.727 c 14.757,-16.554 22.561,-40.735 22.561,-73.316 V 148.37 h -31.174 v 28.48 h -0.385 c -5.905,-11.029 -14.113,-19.303 -24.631,-24.823 -10.524,-5.515 -22.069,-8.275 -34.637,-8.275 -17.193,0 -31.691,3.271 -43.49,9.814 -11.804,6.543 -21.299,14.95 -28.479,25.209 -7.187,10.264 -12.315,21.552 -15.395,33.868 -3.079,12.315 -4.618,24.378 -4.618,36.177 0,13.603 1.858,26.496 5.581,38.679 3.716,12.19 9.296,22.9 16.741,32.137 7.439,9.236 16.675,16.548 27.71,21.936 11.035,5.388 23.994,8.082 38.877,8.082 6.158,0 12.376,-0.769 18.665,-2.309 6.291,-1.539 12.19,-3.782 17.71,-6.735 5.514,-2.946 10.452,-6.669 14.817,-11.16 4.36,-4.487 7.95,-9.813 10.776,-15.972 h 0.757 v 13.084 c 0,11.293 -1.094,21.553 -3.272,30.79 -2.182,9.237 -5.712,17.127 -10.583,23.668 -4.877,6.543 -11.035,11.672 -18.474,15.395 -7.445,3.717 -16.549,5.581 -27.325,5.581 -5.389,0 -11.035,-0.579 -16.935,-1.732 -2.13,-0.416 -4.2,-0.928 -6.211,-1.53 -2.188,-0.772 -4.358,-1.557 -6.51,-2.356 -0.2,-0.085 -0.399,-0.172 -0.598,-0.259 v 0.036 C 236.622,364.583 180.992,310.909 180.992,250.003 c 0,-97.147 141.523,-175.899 316.1,-175.899 97.253,0 184.451,22.15 242.436,60.593 C 676.24,70.283 562.757,25.022 433.005,25 234.282,24.965 73.17,125.674 73.153,249.938 c -0.012,84.821 75.042,158.697 185.893,197.058 88.919,3.044 134.048,-13.459 160.625,-43.269 z M 406.248,271.526 c -2.182,9.236 -5.58,17.512 -10.199,24.823 -4.617,7.314 -10.715,13.219 -18.28,17.703 -7.571,4.493 -16.742,6.735 -27.517,6.735 -10.777,0 -19.761,-2.242 -26.941,-6.735 -7.186,-4.484 -12.959,-10.39 -17.319,-17.703 -4.366,-7.311 -7.444,-15.454 -9.237,-24.439 -1.797,-8.978 -2.694,-17.956 -2.694,-26.94 0,-9.489 1.088,-18.6 3.271,-27.326 2.178,-8.719 5.641,-16.417 10.392,-23.092 4.745,-6.669 10.837,-11.991 18.281,-15.972 7.439,-3.975 16.417,-5.965 26.941,-5.965 10.259,0 18.984,2.057 26.17,6.158 7.18,4.107 13.019,9.561 17.511,16.356 4.486,6.801 7.758,14.432 9.814,22.899 2.051,8.467 3.079,17.066 3.079,25.786 0,9.238 -1.095,18.475 -3.272,27.712 z"
             style="fill:#86c540;stroke-width:2.59539962" />
          <path
             id="path60"
             d="m 434.849,422.485 c -18.854,17.113 -52.532,36.647 -98.397,44.316 30.707,5.339 63.065,8.194 96.49,8.198 129.236,0.025 242.425,-45.091 305.881,-109.055 -57.984,38.206 -144.83,59.951 -241.728,59.951 -23.018,0.002 -40.626,-0.809 -62.246,-3.41 z"
             style="fill:#86c540;stroke-width:2.59539962" />
        </g>
        <g
           id="g72"
           style="stroke-width:2.59539962">
          <g
             id="g66"
             style="stroke-width:2.59539962">
            <path
               id="path64"
               d="M 633.84,347.908 H 586.875 V 189.705 h -58.922 v -40.234 h 164.81 v 40.234 H 633.84 Z"
               style="fill:#86c540;stroke-width:2.59539962" />
          </g>
          <g
             id="g70"
             style="stroke-width:2.59539962">
            <path
               id="path68"
               d="M 764.173,347.908 H 717.206 V 149.471 h 144.988 v 40.234 h -98.021 v 37.128 h 85.803 v 40.233 h -85.803 z"
               style="fill:#86c540;stroke-width:2.59539962" />
          </g>
        </g>
        <path
           id="path74"
           d="m 469.554,100.031 h 32.714 v 247.313 h -32.714 z"
           style="fill:#86c540;stroke-width:2.59539962" />
      </g>
      <g
         id="g82"
         style="stroke-width:2.59539962">
        <polygon
           id="polygon78"
           points="881.67,155.289 881.67,149.769 902.782,149.769 902.782,155.289 902.783,155.289 895.435,155.289 895.435,174.4 889.017,174.4 889.017,155.289 "
           style="fill:#86c540;stroke-width:2.59539962" />
        <polygon
           id="polygon80"
           points="927.001,155.703 921.826,174.4 916.929,174.4 911.752,155.703 911.683,155.703 911.683,174.4 905.647,174.4 905.647,149.769 915.1,149.769 919.342,166.19 919.411,166.19 923.654,149.769 933.107,149.769 933.107,174.4 927.069,174.4 927.069,155.703 "
           style="fill:#86c540;stroke-width:2.59539962" />
      </g>
    </g>
    <rect
       y="304.66498"
       x="150.7973"
       height="1.5875"
       width="246.0625"
       id="rect86"
       style="opacity:1;fill:#ffffff;fill-opacity:1;stroke:none;stroke-width:1.05833328;stroke-linecap:round;stroke-linejoin:round;stroke-miterlimit:4;stroke-dasharray:none;stroke-dashoffset:0;stroke-opacity:1;paint-order:normal" />
  </g>
</svg>
